<svg width="19" height="19" viewBox="0 0 19 19" fill="none" xmlns="http://www.w3.org/2000/svg">
<path d="M6.06104 4.8125C5.75354 4.8125 5.49854 4.5575 5.49854 4.25V2C5.49854 1.6925 5.75354 1.4375 6.06104 1.4375C6.36854 1.4375 6.62354 1.6925 6.62354 2V4.25C6.62354 4.5575 6.36854 4.8125 6.06104 4.8125Z" fill="#171717"/>
<path d="M12.061 4.8125C11.7535 4.8125 11.4985 4.5575 11.4985 4.25V2C11.4985 1.6925 11.7535 1.4375 12.061 1.4375C12.3685 1.4375 12.6235 1.6925 12.6235 2V4.25C12.6235 4.5575 12.3685 4.8125 12.061 4.8125Z" fill="#171717"/>
<path d="M6.43604 11.375C6.33854 11.375 6.24103 11.3525 6.15103 11.315C6.05353 11.2775 5.97854 11.225 5.90354 11.1575C5.76854 11.015 5.68604 10.8275 5.68604 10.625C5.68604 10.5275 5.70854 10.43 5.74604 10.34C5.78354 10.25 5.83604 10.1675 5.90354 10.0925C5.97854 10.025 6.05353 9.97248 6.15103 9.93498C6.42103 9.82248 6.75853 9.8825 6.96853 10.0925C7.10353 10.235 7.18603 10.43 7.18603 10.625C7.18603 10.67 7.17853 10.7225 7.17103 10.775C7.16353 10.82 7.14853 10.865 7.12603 10.91C7.11103 10.955 7.08854 11 7.05854 11.045C7.03604 11.0825 6.99853 11.12 6.96853 11.1575C6.82603 11.2925 6.63103 11.375 6.43604 11.375Z" fill="#171717"/>
<path d="M9.06103 11.375C8.96353 11.375 8.86603 11.3525 8.77603 11.315C8.67853 11.2775 8.60354 11.225 8.52854 11.1575C8.39354 11.015 8.31104 10.8275 8.31104 10.625C8.31104 10.5275 8.33354 10.43 8.37104 10.34C8.40854 10.25 8.46104 10.1675 8.52854 10.0925C8.60354 10.025 8.67853 9.97249 8.77603 9.93499C9.04603 9.81499 9.38353 9.8825 9.59353 10.0925C9.72853 10.235 9.81103 10.43 9.81103 10.625C9.81103 10.67 9.80353 10.7225 9.79603 10.775C9.78853 10.82 9.77353 10.865 9.75103 10.91C9.73603 10.955 9.71354 11 9.68354 11.045C9.66104 11.0825 9.62353 11.12 9.59353 11.1575C9.45103 11.2925 9.25603 11.375 9.06103 11.375Z" fill="#292D32"/>
<path d="M11.686 11.375C11.5885 11.375 11.491 11.3525 11.401 11.315C11.3035 11.2775 11.2285 11.225 11.1535 11.1575C11.1235 11.12 11.0935 11.0825 11.0635 11.045C11.0335 11 11.011 10.955 10.996 10.91C10.9735 10.865 10.9585 10.82 10.951 10.775C10.9435 10.7225 10.936 10.67 10.936 10.625C10.936 10.43 11.0185 10.235 11.1535 10.0925C11.2285 10.025 11.3035 9.97249 11.401 9.93499C11.6785 9.81499 12.0085 9.8825 12.2185 10.0925C12.3535 10.235 12.436 10.43 12.436 10.625C12.436 10.67 12.4285 10.7225 12.421 10.775C12.4135 10.82 12.3985 10.865 12.376 10.91C12.361 10.955 12.3385 11 12.3085 11.045C12.286 11.0825 12.2485 11.12 12.2185 11.1575C12.076 11.2925 11.881 11.375 11.686 11.375Z" fill="#292D32"/>
<path d="M6.43604 14C6.33854 14 6.24103 13.9775 6.15103 13.94C6.06103 13.9025 5.97854 13.85 5.90354 13.7825C5.76854 13.64 5.68604 13.445 5.68604 13.25C5.68604 13.1525 5.70854 13.055 5.74604 12.965C5.78354 12.8675 5.83604 12.785 5.90354 12.7175C6.18104 12.44 6.69103 12.44 6.96853 12.7175C7.10353 12.86 7.18603 13.055 7.18603 13.25C7.18603 13.445 7.10353 13.64 6.96853 13.7825C6.82603 13.9175 6.63103 14 6.43604 14Z" fill="#292D32"/>
<path d="M9.06103 14C8.86603 14 8.67104 13.9175 8.52854 13.7825C8.39354 13.64 8.31104 13.445 8.31104 13.25C8.31104 13.1525 8.33354 13.055 8.37104 12.965C8.40854 12.8675 8.46104 12.785 8.52854 12.7175C8.80604 12.44 9.31603 12.44 9.59353 12.7175C9.66103 12.785 9.71353 12.8675 9.75103 12.965C9.78853 13.055 9.81103 13.1525 9.81103 13.25C9.81103 13.445 9.72853 13.64 9.59353 13.7825C9.45103 13.9175 9.25603 14 9.06103 14Z" fill="#292D32"/>
<path d="M11.686 14C11.491 14 11.296 13.9175 11.1535 13.7825C11.086 13.715 11.0335 13.6325 10.996 13.535C10.9585 13.445 10.936 13.3475 10.936 13.25C10.936 13.1525 10.9585 13.055 10.996 12.965C11.0335 12.8675 11.086 12.785 11.1535 12.7175C11.326 12.545 11.5885 12.4625 11.8285 12.515C11.881 12.5225 11.926 12.5375 11.971 12.56C12.016 12.575 12.061 12.5975 12.106 12.6275C12.1435 12.65 12.181 12.6875 12.2185 12.7175C12.3535 12.86 12.436 13.055 12.436 13.25C12.436 13.445 12.3535 13.64 12.2185 13.7825C12.076 13.9175 11.881 14 11.686 14Z" fill="#292D32"/>
<path d="M15.436 7.87997H2.68604C2.37854 7.87997 2.12354 7.62497 2.12354 7.31747C2.12354 7.00997 2.37854 6.75497 2.68604 6.75497H15.436C15.7435 6.75497 15.9985 7.00997 15.9985 7.31747C15.9985 7.62497 15.7435 7.87997 15.436 7.87997Z" fill="#292D32"/>
<path d="M12.061 17.5625H6.06104C3.32354 17.5625 1.74854 15.9875 1.74854 13.25V6.875C1.74854 4.1375 3.32354 2.5625 6.06104 2.5625H12.061C14.7985 2.5625 16.3735 4.1375 16.3735 6.875V13.25C16.3735 15.9875 14.7985 17.5625 12.061 17.5625ZM6.06104 3.6875C3.91604 3.6875 2.87354 4.73 2.87354 6.875V13.25C2.87354 15.395 3.91604 16.4375 6.06104 16.4375H12.061C14.206 16.4375 15.2485 15.395 15.2485 13.25V6.875C15.2485 4.73 14.206 3.6875 12.061 3.6875H6.06104Z" fill="#292D32"/>
</svg>
