<svg width="18" height="18" viewBox="0 0 18 18" fill="none" xmlns="http://www.w3.org/2000/svg">
<path d="M15.75 13.4751V7.61275C15.75 6.70453 15.3453 5.84437 14.6476 5.26989L10.8976 2.18201C9.79327 1.27266 8.20673 1.27266 7.10239 2.18201L3.3524 5.26989C2.65473 5.84437 2.25 6.70453 2.25 7.61275V13.4751C2.25 15.1457 3.59315 16.5 5.25 16.5H12.75C14.4069 16.5 15.75 15.1457 15.75 13.4751Z" stroke="#28303F" stroke-width="1.125" stroke-linejoin="round"/>
<path d="M11.625 9.45C11.625 11.314 9 13.5 9 13.5C9 13.5 6.375 11.314 6.375 9.45C6.375 7.58604 7.75736 6.75 9 6.75C10.2426 6.75 11.625 7.58604 11.625 9.45Z" stroke="#28303F" stroke-width="1.125" stroke-linejoin="round"/>
<circle cx="9" cy="9" r="0.75" fill="#28303F"/>
</svg>
