<svg width="327" height="195" viewBox="0 0 327 195" fill="none" xmlns="http://www.w3.org/2000/svg">
<circle cx="163" cy="94.5" r="70" fill="#FAFAFA"/>
<g filter="url(#filter0_d_33_2610)">
<circle cx="163" cy="94.5" r="44" fill="white"/>
</g>
<circle cx="267" cy="7.5" r="3" fill="#66C87B"/>
<circle cx="47" cy="141.5" r="3" fill="#66C87B"/>
<circle cx="63" cy="21.5" r="3" fill="#66C87B"/>
<circle cx="253" cy="121.5" r="3" fill="#66C87B"/>
<path d="M163 57.8334C142.796 57.8334 126.333 74.2967 126.333 94.5C126.333 114.703 142.796 131.167 163 131.167C183.203 131.167 199.666 114.703 199.666 94.5C199.666 74.2967 183.203 57.8334 163 57.8334ZM180.526 86.0667L159.736 106.857C159.223 107.37 158.526 107.663 157.793 107.663C157.06 107.663 156.363 107.37 155.85 106.857L145.473 96.48C144.41 95.4167 144.41 93.6567 145.473 92.5934C146.536 91.53 148.296 91.53 149.36 92.5934L157.793 101.027L176.64 82.18C177.703 81.1167 179.463 81.1167 180.526 82.18C181.59 83.2434 181.59 84.9667 180.526 86.0667Z" fill="#66C87B"/>
<defs>
<filter id="filter0_d_33_2610" x="79" y="26.5" width="168" height="168" filterUnits="userSpaceOnUse" color-interpolation-filters="sRGB">
<feFlood flood-opacity="0" result="BackgroundImageFix"/>
<feColorMatrix in="SourceAlpha" type="matrix" values="0 0 0 0 0 0 0 0 0 0 0 0 0 0 0 0 0 0 127 0" result="hardAlpha"/>
<feOffset dy="16"/>
<feGaussianBlur stdDeviation="20"/>
<feComposite in2="hardAlpha" operator="out"/>
<feColorMatrix type="matrix" values="0 0 0 0 0 0 0 0 0 0.305882 0 0 0 0 0.698039 0 0 0 0.16 0"/>
<feBlend mode="normal" in2="BackgroundImageFix" result="effect1_dropShadow_33_2610"/>
<feBlend mode="normal" in="SourceGraphic" in2="effect1_dropShadow_33_2610" result="shape"/>
</filter>
</defs>
</svg>
